<?xml version="1.0" encoding="utf-8"?>
<!-- Generator: Adobe Illustrator 23.0.5, SVG Export Plug-In . SVG Version: 6.00 Build 0)  -->
<svg version="1.1" xmlns="http://www.w3.org/2000/svg" xmlns:xlink="http://www.w3.org/1999/xlink" x="0px" y="0px"
	 viewBox="0 0 3000 3000" style="enable-background:new 0 0 3000 3000;" xml:space="preserve">
<style type="text/css">
	.st0{fill:none;stroke:url(#Circulo_1_);stroke-width:50;stroke-miterlimit:10;}
	.st1{fill:#58595B;}
	.st2{fill-rule:evenodd;clip-rule:evenodd;fill:#333333;}
	.st3{fill-rule:evenodd;clip-rule:evenodd;fill:#748A1E;}
</style>
<g id="background">
</g>
<g id="Layer_2">
	<linearGradient id="Circulo_1_" gradientUnits="userSpaceOnUse" x1="468.5174" y1="1592.4869" x2="2535.5437" y2="1592.4869">
		<stop  offset="0" style="stop-color:#748A1E"/>
		<stop  offset="0.0509" style="stop-color:#747322"/>
		<stop  offset="0.1093" style="stop-color:#756225"/>
		<stop  offset="0.1802" style="stop-color:#755527"/>
		<stop  offset="0.2755" style="stop-color:#754E29"/>
		<stop  offset="0.5" style="stop-color:#754C29"/>
		<stop  offset="0.6915" style="stop-color:#754E29"/>
		<stop  offset="0.7729" style="stop-color:#77552B"/>
		<stop  offset="0.8334" style="stop-color:#79622D"/>
		<stop  offset="0.8836" style="stop-color:#7D7330"/>
		<stop  offset="0.9273" style="stop-color:#818A34"/>
		<stop  offset="0.9659" style="stop-color:#87A639"/>
		<stop  offset="1" style="stop-color:#8DC63F"/>
	</linearGradient>
	<circle id="Circulo" class="st0" cx="1502.03" cy="1592.49" r="1008.51"/>
	<g>
		<g>
			<g>
				<path class="st1" d="M1238.47,2259.88v-2.67c6.17-0.61,6.85-1.03,6.85-7.69v-30.54c0-6.69-0.73-7.21-6.85-7.77v-2.67h23.28v2.67
					c-6.15,0.61-6.88,1.08-6.88,7.77v30.54c0,6.64,0.68,7.03,6.88,7.69v2.67H1238.47z"/>
				<path class="st1" d="M1323.22,2211.2c-4.9,0.6-6.46,1.55-6.69,5.13c-0.18,2.89-0.39,5.79-0.39,12.83v31.52h-3.93l-33.25-40.13
					v18.52c0,6.96,0.19,10.2,0.4,12.49c0.26,3.67,2.03,5.27,7.82,5.64v2.67h-19.45v-2.67c4.64-0.4,6.59-1.58,7.01-5.35
					c0.29-2.73,0.45-5.83,0.45-12.81v-19.22c0-2.47-0.16-4.04-1.63-5.98c-1.45-1.97-3.26-2.29-6.77-2.64v-2.67h14.16l31.29,36.65
					v-16.02c0-7.04-0.11-9.92-0.34-12.65c-0.24-3.45-1.69-4.92-8.17-5.31v-2.67h19.51V2211.2z"/>
				<path class="st1" d="M1377.19,2211.2c-5.24,0.61-6.74,1.32-9.69,8.69c-2.34,5.78-11.44,27.77-16.6,40.86h-3.74
					c-3.07-8.46-12.12-32.54-15.85-42.07c-2.37-5.9-3.5-6.99-8.53-7.47v-2.67h22.68l-0.05,2.67c-5.79,0.74-5.91,1.43-4.7,4.61
					c2.28,6.33,8.15,22.41,11.64,31.52c4.55-10.91,9.14-22.4,11.62-29.22c1.89-5.15,1.2-6.17-5.38-6.9v-2.67h18.58V2211.2z"/>
				<path class="st1" d="M1419.97,2246.75c-0.42,2.11-2.61,10.86-3.35,13.13h-40.09v-2.62c7.24-0.66,7.75-1.16,7.75-7.74v-30.54
					c0-6.83-0.92-7.27-6.49-7.77v-2.67h25.15c7.99,0,10.87-0.08,11.92-0.16c0.08,1.62,0.45,7.9,0.76,12.55l-2.83,0.39
					c-0.71-2.69-1.86-5.37-3.04-6.88c-1.37-1.94-2.67-2.44-6.95-2.44h-5.96c-2.81,0-3.07,0.19-3.07,2.73v16.84h8.1
					c4.95,0,5.6-1.18,6.7-6.71h2.86v17.15h-2.86c-1.18-5.79-1.81-6.68-6.78-6.68h-8.02v14.33c0,5.48,0.71,6.72,5.28,6.8h6.22
					c4.56,0,5.61-0.61,7.35-2.71c1.81-2.07,3.42-5.1,4.63-7.68L1419.97,2246.75z"/>
				<path class="st1" d="M1453.71,2221.2c-1.5-5.11-3.71-10.66-11.03-10.66c-5.13,0-7.83,3.68-7.83,7.99
					c0,4.73,3.12,7.39,9.93,10.84c8.81,4.44,13.74,8.38,13.74,16.09c0,8.96-7.55,15.59-18.46,15.59c-4.95,0-9.31-1.34-12.86-2.5
					c-0.53-1.96-1.73-9.17-2.29-13.08l2.86-0.68c1.58,5.09,5.67,13.09,13.58,13.09c5.12,0,8.24-3.33,8.24-8.42
					c0-5.11-2.98-7.71-9.73-11.35c-8.24-4.45-13.37-8.35-13.37-16.26c0-7.85,6.26-14.44,17.61-14.44c5.09,0,9.28,1.18,10.99,1.45
					c0.32,2.9,0.79,6.67,1.42,11.7L1453.71,2221.2z"/>
				<path class="st1" d="M1507.75,2221.75c-0.81-3.25-2.27-6.11-3.09-7.33c-1.37-1.83-2.05-2.43-6.6-2.43H1492v37.6
					c0,6.47,0.73,7.08,7.93,7.61v2.67h-25.09v-2.67c6.94-0.53,7.62-1.11,7.62-7.61V2212h-5.65c-4.4,0-5.66,0.63-7.11,2.69
					c-1.05,1.53-1.99,4.04-3.02,7.12h-2.78c0.53-5.44,1.05-11.18,1.24-15.2h2.18c1.18,1.84,2.1,1.92,4.42,1.92h31.49
					c2.16,0,3.1-0.42,4.39-1.92h2.15c0.05,3.46,0.37,9.97,0.76,14.91L1507.75,2221.75z"/>
				<path class="st1" d="M1558.3,2259.88v-2.67c6.17-0.63,6.51-1.16,6.48-8.74l-0.02-31.31c-5.96,13.89-13.67,31.55-18.33,42.72
					h-2.41c-4.28-10.89-11.05-28.04-16.85-42.03c-1.14,25.8-1.17,31.17-1.17,33.54c0.08,4.32,1.8,5.26,7.53,5.81v2.67h-19.29v-2.67
					c4.53-0.42,6.53-1.32,7.16-5.89c0.37-2.76,0.6-6.68,2.5-33.71c0.26-3.9-0.37-5.76-7.22-6.39v-2.67h15.9l16.02,36.66l16.51-36.66
					h15.67v2.67c-6.49,0.69-7.25,1.35-7.09,7.39l0.52,29.87c0.16,7.58,0.45,7.92,7.04,8.74v2.67H1558.3z"/>
				<path class="st1" d="M1629.87,2246.75c-0.42,2.11-2.61,10.86-3.35,13.13h-40.09v-2.62c7.24-0.66,7.75-1.16,7.75-7.74v-30.54
					c0-6.83-0.92-7.27-6.49-7.77v-2.67h25.15c7.99,0,10.87-0.08,11.92-0.16c0.08,1.62,0.45,7.9,0.76,12.55l-2.83,0.39
					c-0.71-2.69-1.86-5.37-3.04-6.88c-1.37-1.94-2.67-2.44-6.95-2.44h-5.96c-2.81,0-3.07,0.19-3.07,2.73v16.84h8.1
					c4.95,0,5.6-1.18,6.7-6.71h2.86v17.15h-2.86c-1.18-5.79-1.81-6.68-6.78-6.68h-8.02v14.33c0,5.48,0.71,6.72,5.28,6.8h6.22
					c4.56,0,5.61-0.61,7.35-2.71c1.81-2.07,3.42-5.1,4.63-7.68L1629.87,2246.75z"/>
				<path class="st1" d="M1689.7,2211.2c-4.9,0.6-6.46,1.55-6.69,5.13c-0.18,2.89-0.39,5.79-0.39,12.83v31.52h-3.93l-33.25-40.13
					v18.52c0,6.96,0.19,10.2,0.4,12.49c0.26,3.67,2.03,5.27,7.82,5.64v2.67h-19.45v-2.67c4.64-0.4,6.59-1.58,7.01-5.35
					c0.29-2.73,0.45-5.83,0.45-12.81v-19.22c0-2.47-0.16-4.04-1.63-5.98c-1.45-1.97-3.26-2.29-6.77-2.64v-2.67h14.16l31.29,36.65
					v-16.02c0-7.04-0.11-9.92-0.34-12.65c-0.24-3.45-1.69-4.92-8.17-5.31v-2.67h19.51V2211.2z"/>
				<path class="st1" d="M1737.08,2221.75c-0.81-3.25-2.28-6.11-3.09-7.33c-1.37-1.83-2.05-2.43-6.6-2.43h-6.05v37.6
					c0,6.47,0.73,7.08,7.93,7.61v2.67h-25.09v-2.67c6.94-0.53,7.62-1.11,7.62-7.61V2212h-5.65c-4.4,0-5.66,0.63-7.11,2.69
					c-1.05,1.53-1.99,4.04-3.02,7.12h-2.78c0.53-5.44,1.05-11.18,1.24-15.2h2.18c1.18,1.84,2.11,1.92,4.42,1.92h31.49
					c2.16,0,3.1-0.42,4.39-1.92h2.15c0.05,3.46,0.37,9.97,0.76,14.91L1737.08,2221.75z"/>
				<path class="st1" d="M1774.13,2221.2c-1.5-5.11-3.71-10.66-11.03-10.66c-5.13,0-7.83,3.68-7.83,7.99
					c0,4.73,3.12,7.39,9.93,10.84c8.81,4.44,13.74,8.38,13.74,16.09c0,8.96-7.55,15.59-18.46,15.59c-4.95,0-9.31-1.34-12.86-2.5
					c-0.53-1.96-1.73-9.17-2.29-13.08l2.86-0.68c1.58,5.09,5.67,13.09,13.58,13.09c5.12,0,8.24-3.33,8.24-8.42
					c0-5.11-2.98-7.71-9.73-11.35c-8.24-4.45-13.37-8.35-13.37-16.26c0-7.85,6.26-14.44,17.61-14.44c5.09,0,9.28,1.18,10.99,1.45
					c0.32,2.9,0.79,6.67,1.42,11.7L1774.13,2221.2z"/>
			</g>
		</g>
		<path class="st2" d="M1865.67,2233.61c135.03,0,260.51,2.39,362.08,4.78c-101.57,2.39-227.05,4.78-362.08,4.78V2233.61z
			 M1134.33,2233.61c-136.23,0-261.7,2.39-363.28,4.78c101.57,2.39,227.05,4.78,363.28,4.78V2233.61z"/>
		<path class="st2" d="M1619.5,794.73c-2.39,2.39-2.39,1.2-3.58,4.78c-8.36,29.89-13.14,58.58-11.95,89.67
			c1.19,31.09,8.37,64.56,15.53,93.25c26.29,114.78-50.19,190.1-112.33,279.76c-2.39,3.59-4.78,7.17-7.17,11.96
			c-2.39-4.78-5.97-8.37-8.36-11.96c-60.94-89.67-137.42-164.99-111.13-279.76c7.17-28.69,14.34-62.17,15.53-93.25
			c1.19-31.09-3.58-59.78-13.14-89.67c-1.2-3.59,0-2.39-3.58-4.78c-5.97,1.2-2.39,13.15-2.39,19.13
			c4.78,35.87,5.97,74.13-3.58,108.8c-3.59,9.56-9.56,29.89-15.53,34.67c-8.37-3.59-19.12-15.54-27.48-22.72
			c-11.95-10.76-28.68-31.09-38.24-45.43c-15.53-21.52-38.24-69.34-41.82-94.45l0,0c-1.19,16.74,5.98,49.02,10.76,64.56
			c7.17,23.91,21.51,57.39,35.85,76.52c19.12,26.3,37.04,34.67,46.6,68.15c4.78,43.04-3.58,62.17,13.14,114.78
			c11.95,34.67,15.53,44.24,37.04,72.93c9.56,11.96,1.2,8.37,1.2,8.37c-53.77-46.63-99.18-51.41-146.98-84.89
			c-60.94-41.85-112.33-101.62-144.59-167.38c-3.58-5.98-5.97-16.74-13.14-16.74c-4.78,7.17,1.19,16.74,5.97,26.3
			c46.6,98.04,78.87,138.69,155.35,193.68c27.48,20.32,50.19,32.28,80.06,47.82c9.56,4.78,41.82,21.52,43.02,29.89
			c-5.98,4.78-22.7,1.2-31.07,1.2c-11.95-1.2-23.9-1.2-35.85-1.2c-44.21,1.2-89.62,17.93-127.86,14.35
			c-10.76,0-21.51-2.39-31.07-4.78c-7.17-1.2-22.7-8.37-27.48-7.17c-1.2,5.98,2.39,5.98,7.17,8.37
			c58.55,25.11,99.18,22.72,136.23,17.93c119.5-14.35,215.1,23.91,192.39,170.97c-14.34-46.63-184.03-52.61-224.66-71.73
			c-20.31-10.76-33.46-17.93-51.38-31.08c-10.76-8.37-10.76-10.76-17.92-8.37c-1.19,7.17,2.39,8.37,5.97,11.96
			c19.12,22.72,51.38,46.63,80.06,58.58c81.26,37.06,141.01,10.76,188.81,112.38c10.76,25.11,15.53,104.02-5.97,123.14
			c0,0-39.43-33.48-50.19-41.85c-44.21-33.48-72.89-44.24-127.86-57.39c-25.09-5.98-48.99-11.96-75.28-16.74
			c-51.38-10.76-88.43-26.3-129.06-56.19c-25.09-17.93-48.99-46.63-64.53-72.93c-2.39-4.78-15.53-28.69-16.73-29.89
			c-7.17,0-3.58,5.98-2.39,11.96c11.95,33.48,28.68,64.56,51.38,92.06c19.12,22.72,63.33,60.97,92.01,70.54
			c-3.58,3.59-19.12,9.56-23.9,10.76c-47.8,17.93-95.6,29.89-146.98,25.11c-9.56,0-43.02-4.78-51.38-8.37
			c-4.78-2.39-3.59-3.59-5.98-1.2c-1.2,1.2,0,4.78,1.2,4.78c9.56,5.98,43.02,14.35,53.77,16.74c21.51,4.78,41.82,5.98,65.72,5.98
			c77.67,0,136.23-51.41,249.75-7.17c37.04,14.35,64.53,33.48,90.82,53.8c65.72,51.41,96.79,125.54,99.18,206.83
			c0,19.13-1.19,39.45-3.59,58.58c-7.17,51.41-22.7,131.51-88.43,121.95c-3.58,0-8.36-1.2-25.09,3.59
			c-14.34,3.59-32.26,5.98-48.99,7.17c-72.89,5.98-51.38-11.96-111.13,9.56c-4.78,2.39-10.75,4.78-19.12,5.98h730.14
			c-5.97-2.39-10.75-3.59-15.53-4.78c-41.82-10.76-38.24-10.76-80.06-9.56c-19.12,1.2-69.31-4.78-90.82-5.98
			c-58.55-4.78-92.01-15.54-103.96-32.28c-1.19,3.59-3.58,14.35-8.36,22.72c1.19-19.13,2.39-32.28,0-47.82
			c-2.39-28.69-13.14-53.8-16.73-87.28c-9.56-95.65,20.31-187.71,97.99-248.68c25.09-20.32,53.77-39.45,89.62-53.8
			c113.52-44.24,173.27,7.17,250.95,7.17c22.7,0,44.21-1.2,65.72-5.98c10.75-2.39,43.02-10.76,53.77-16.74c0,0,1.2-3.59,1.2-4.78
			c-2.39-2.39-1.2-1.2-5.97,1.2c-9.56,3.59-43.02,8.37-51.38,8.37c-51.38,4.78-100.38-7.17-146.98-25.11
			c-4.78-1.2-21.51-7.17-23.9-10.76c28.68-9.56,71.7-47.82,92.01-70.54c22.7-27.5,39.43-58.58,51.38-92.06
			c1.19-5.98,4.78-11.96-3.58-11.96c-1.2,1.2-13.14,25.11-15.53,29.89c-15.53,26.3-40.63,55-64.53,72.93
			c-40.63,29.89-77.67,45.43-129.06,56.19c-26.29,4.78-51.38,10.76-75.28,16.74c-54.97,13.15-84.84,23.91-127.86,57.39
			c-11.95,8.37-50.19,41.85-50.19,41.85c-21.51-19.13-17.92-98.04-5.97-123.14c46.6-101.62,107.55-75.32,188.81-112.38
			c27.48-11.96,59.75-35.87,80.06-58.58c3.58-3.59,7.17-4.78,5.97-11.96c-7.17-2.39-8.36,0-17.92,8.37
			c-17.92,13.15-31.07,20.32-51.38,31.08c-40.63,19.13-210.32,25.11-224.66,71.73c-22.7-147.06,72.89-185.31,192.39-170.97
			c37.04,4.78,76.48,7.17,135.03-17.93c5.98-2.39,9.56-2.39,7.17-8.37c-3.59-1.2-20.31,5.98-26.29,7.17
			c-10.76,2.39-20.31,4.78-31.07,4.78c-38.24,3.59-83.65-13.15-127.86-14.35c-11.95,0-23.9,0-35.85,1.2
			c-8.36,0-26.29,3.59-31.07-1.2c1.19-8.37,33.46-25.11,43.02-29.89c28.68-15.54,52.58-27.5,78.87-47.82
			c77.67-55,109.94-95.65,156.54-193.68c4.78-9.56,10.76-19.13,5.98-26.3c-8.37,0-10.76,10.76-13.14,16.74
			c-33.46,65.76-84.84,125.54-144.59,167.38c-47.8,33.48-93.21,38.26-146.98,84.89c0,0-9.56,3.59,1.2-8.37
			c20.31-28.69,25.09-38.26,35.85-72.93c17.92-52.61,9.56-71.73,13.14-114.78c10.76-33.48,27.48-41.85,46.6-68.15
			c15.53-19.13,29.87-52.61,37.04-76.52c4.78-15.54,11.95-47.82,10.76-64.56l0,0c-3.58,25.11-26.29,72.93-41.82,94.45
			c-9.56,14.35-26.29,34.67-39.43,45.43c-7.17,7.17-17.92,19.13-27.48,22.72c-4.78-4.78-11.95-25.11-14.34-34.67
			c-9.56-34.67-8.36-72.93-4.78-108.8C1623.08,807.88,1626.67,795.92,1619.5,794.73L1619.5,794.73z M1158.23,922.65
			c0-2.39,1.2-4.78,2.39-5.98c-2.39,2.39-4.78,3.59-5.98,5.98H1158.23z"/>
		<path class="st3" d="M1695.98,811.46c-17.92,9.56-51.38,39.45-53.77,52.61c3.58,0,11.95,2.39,15.53,2.39
			c37.04-1.2,58.55-25.11,64.53-70.54c-51.38-9.56-82.45,7.17-87.23,41.85c-1.19,5.98,0,13.15,0,20.32
			C1652.96,832.99,1678.05,815.05,1695.98,811.46L1695.98,811.46z"/>
		<path class="st3" d="M1813.09,740.93c-16.73,11.96-45.41,45.43-46.6,57.39c3.58,0,11.95,1.2,15.53,1.2
			c37.04-5.98,54.97-31.09,54.97-77.71c-52.58-2.39-80.06,17.93-81.26,52.61c0,5.98,2.39,13.15,3.59,19.13
			C1773.65,767.23,1795.16,746.9,1813.09,740.93L1813.09,740.93z"/>
		<path class="st3" d="M1831.01,809.07c-9.56,2.39-28.68,11.96-31.07,17.93c2.39,1.2,5.97,2.39,7.17,2.39
			c17.92,4.78,29.87-4.78,38.24-25.11c-23.9-9.56-39.43-5.98-45.41,9.56c-1.19,3.59-2.39,7.17-2.39,9.56
			C1808.31,813.86,1822.65,807.88,1831.01,809.07L1831.01,809.07z"/>
		<path class="st3" d="M2202.65,1296.87c-16.73,4.78-51.38,23.91-56.16,34.67c2.39,1.2,9.56,4.78,11.95,4.78
			c33.46,7.17,57.36-8.37,70.5-47.82c-43.02-17.93-72.89-9.56-83.65,19.13c-2.39,4.78-3.59,11.96-3.59,16.74
			C2162.02,1307.63,2187.12,1296.87,2202.65,1296.87L2202.65,1296.87z"/>
		<path class="st3" d="M1737.8,1447.51c-9.56-9.56-34.65-23.91-43.02-22.72c0,2.39,1.19,8.37,1.19,10.76
			c8.36,22.72,27.48,31.08,57.36,25.11c-5.97-33.48-22.7-49.02-44.21-45.43c-3.59,1.2-8.36,3.59-11.95,4.78
			C1715.1,1425.99,1731.83,1436.75,1737.8,1447.51L1737.8,1447.51z"/>
		<path class="st3" d="M2154.85,1361.43c-9.56,2.39-28.68,11.96-31.07,17.93c2.39,1.2,4.78,2.39,7.17,3.59
			c17.92,3.59,29.87-4.78,38.24-26.3c-23.9-9.56-39.43-4.78-45.41,10.76c-1.2,2.39-2.39,5.98-2.39,8.37
			C2132.15,1366.21,2145.29,1361.43,2154.85,1361.43L2154.85,1361.43z"/>
		<path class="st3" d="M2181.14,1183.29c-16.73,10.76-47.8,43.04-50.19,56.19c4.78,0,13.14,1.2,15.53,1.2
			c38.24-3.59,58.55-28.69,59.75-75.32c-51.38-4.78-81.26,14.35-83.65,49.02c0,5.98,1.2,13.15,2.39,20.32
			C2140.51,1208.4,2163.22,1189.27,2181.14,1183.29L2181.14,1183.29z"/>
		<path class="st3" d="M1674.47,725.38c-13.14,13.15-33.46,49.02-32.26,60.97c3.58,0,10.75-1.2,14.34-2.39
			c33.46-10.76,45.41-38.26,37.04-80.1c-47.8,7.17-70.5,29.89-64.53,62.17c0,4.78,3.58,11.96,5.97,17.93
			C1643.4,756.47,1660.13,733.75,1674.47,725.38L1674.47,725.38z"/>
		<path class="st3" d="M2111.83,1039.82c-15.53,4.78-46.6,21.52-51.38,31.09c3.58,0,9.56,3.59,11.95,3.59
			c28.68,7.17,48.99-7.17,62.14-41.85c-38.24-15.54-64.53-8.37-74.09,16.74c-2.39,4.78-2.39,10.76-3.59,15.54
			C2074.79,1049.38,2096.3,1039.82,2111.83,1039.82L2111.83,1039.82z"/>
		<path class="st3" d="M1736.61,703.86c0,16.74-9.56,52.61-17.92,59.78c-2.39-2.39-7.17-8.37-8.36-10.76
			c-13.14-28.69-3.59-52.61,28.68-74.13c25.09,34.67,23.9,63.37,1.2,80.1c-4.78,2.39-10.75,4.78-15.53,7.17
			C1736.61,743.32,1740.19,719.41,1736.61,703.86L1736.61,703.86z"/>
		<path class="st3" d="M2037.74,1005.15c-13.15,13.15-33.46,49.02-32.26,59.78c3.58,0,10.76-1.2,14.34-1.2
			c32.26-11.96,44.21-38.26,35.85-78.91c-46.6,5.98-68.11,28.69-63.33,59.78c1.2,5.98,3.59,11.96,5.98,17.93
			C2006.67,1036.23,2023.4,1013.52,2037.74,1005.15L2037.74,1005.15z"/>
		<path class="st3" d="M1815.48,1417.62c-16.73-3.59-52.58-2.39-60.94,4.78c2.39,2.39,7.17,7.17,9.56,9.56
			c22.7,17.93,48.99,14.35,75.28-10.76c-27.48-32.28-54.97-37.06-75.28-17.93c-3.58,2.39-7.17,7.17-10.75,11.96
			C1777.24,1409.25,1802.33,1410.45,1815.48,1417.62L1815.48,1417.62z"/>
		<path class="st3" d="M1851.33,1100.79c-11.95,1.2-34.65,11.96-38.24,19.13c2.39,0,5.97,2.39,8.36,3.59
			c20.31,5.98,35.85-3.59,46.6-27.5c-26.29-13.15-45.41-9.56-53.77,8.37c-1.2,3.59-2.39,7.17-3.58,10.76
			C1825.04,1104.38,1840.57,1099.6,1851.33,1100.79L1851.33,1100.79z"/>
		<path class="st3" d="M2037.74,1099.6c-23.9,8.37-69.31,39.45-75.28,53.8c4.78,1.2,14.34,5.98,19.12,5.98
			c46.6,5.98,76.48-19.13,92.01-75.32c-62.14-19.13-102.77-4.78-114.72,37.06c-2.39,7.17-2.39,16.74-3.58,25.11
			C1981.58,1118.73,2015.04,1100.79,2037.74,1099.6L2037.74,1099.6z"/>
		<path class="st3" d="M1967.24,1036.23c1.2,13.15-2.39,39.45-8.36,45.43c-1.19-2.39-5.97-5.98-7.17-7.17
			c-11.95-20.32-5.97-38.26,15.53-56.19c21.51,23.91,22.7,44.24,7.17,58.58c-3.58,2.39-7.17,3.59-10.75,5.98
			C1970.82,1064.93,1972.02,1046.99,1967.24,1036.23L1967.24,1036.23z"/>
		<path class="st3" d="M2067.62,933.41c-16.73,3.59-50.19,20.32-54.97,29.89c3.58,1.2,9.56,3.59,11.95,4.78
			c29.87,8.37,52.58-5.98,66.92-41.85c-39.43-17.93-66.92-11.96-78.87,14.35c-1.2,4.78-2.39,10.76-3.59,16.74
			C2028.18,941.78,2052.08,932.22,2067.62,933.41L2067.62,933.41z"/>
		<path class="st3" d="M1974.41,980.04c-20.31,0-63.33,9.56-70.5,20.32c2.39,1.2,8.36,7.17,11.95,8.37
			c32.26,17.93,62.14,7.17,88.43-29.89c-40.63-31.08-74.09-31.08-94.4-4.78c-3.59,4.78-7.17,11.96-9.56,17.93
			C1927.81,978.85,1956.48,975.26,1974.41,980.04L1974.41,980.04z"/>
		<path class="st3" d="M1860.89,895.16c8.36,14.35,17.92,49.02,14.34,58.58c-3.58-1.2-9.56-3.59-11.95-4.78
			c-25.09-16.74-29.87-43.04-13.14-76.52c39.43,17.93,52.58,41.85,40.63,66.95c-2.39,4.78-5.97,9.56-8.36,13.15
			C1880.01,928.63,1871.64,905.92,1860.89,895.16L1860.89,895.16z"/>
		<path class="st3" d="M1722.27,993.19c-11.95-1.2-39.43,1.2-44.21,5.98c1.19,1.2,4.78,4.78,5.97,7.17
			c19.12,13.15,37.04,9.56,57.36-10.76c-22.7-22.72-43.02-26.3-57.36-11.96c-2.39,2.39-5.97,7.17-7.17,10.76
			C1693.59,988.41,1712.71,988.41,1722.27,993.19L1722.27,993.19z"/>
		<path class="st3" d="M1955.29,807.88c3.58,11.96,3.58,40.65-1.2,47.82c-2.39-2.39-7.17-4.78-8.36-7.17
			c-15.53-17.93-14.34-38.26,5.97-60.97c26.29,21.52,31.07,43.04,16.73,59.78c-2.39,3.59-5.97,5.98-9.56,8.37
			C1963.65,836.57,1961.27,817.44,1955.29,807.88L1955.29,807.88z"/>
		<path class="st3" d="M1901.52,827.01c5.97,19.13,7.17,62.17,0,72.93c-2.39-2.39-9.56-7.17-11.95-9.56
			c-25.09-26.3-22.7-57.39,5.98-92.06c40.63,29.89,48.99,62.17,28.68,88.47c-3.58,4.78-9.56,9.56-14.34,13.15
			C1915.86,871.24,1911.08,842.55,1901.52,827.01L1901.52,827.01z"/>
		<path class="st3" d="M1829.82,962.11c9.56,2.39,27.48,13.15,31.07,19.13c-2.39,0-5.98,2.39-7.17,2.39
			c-17.92,3.59-31.07-4.78-38.24-26.3c22.7-9.56,39.43-4.78,45.41,10.76c1.19,2.39,1.19,5.98,2.39,9.56
			C1851.33,968.09,1838.18,962.11,1829.82,962.11L1829.82,962.11z"/>
		<path class="st3" d="M2001.89,890.37c-23.9,5.98-71.7,32.28-77.67,46.63c4.78,1.2,13.14,5.98,17.92,7.17
			c44.21,8.37,75.28-13.15,94.4-65.76c-58.55-23.91-97.99-11.96-113.52,26.3c-2.39,5.98-3.58,15.54-4.78,23.91
			C1945.73,904.72,1979.19,890.37,2001.89,890.37L2001.89,890.37z"/>
		<path class="st3" d="M1789.19,925.04c-19.12,5.98-54.97,25.11-59.75,35.87c2.39,1.2,9.56,4.78,13.15,5.98
			c34.65,7.17,58.55-9.56,74.09-50.21c-45.41-19.13-76.48-9.56-88.43,20.32c-2.39,4.78-3.58,11.96-3.58,17.93
			C1746.17,935.8,1771.26,925.04,1789.19,925.04L1789.19,925.04z"/>
		<path class="st3" d="M1568.11,724.19c13.14,14.35,33.46,51.41,32.26,63.37c-3.58,0-11.95-1.2-15.53-2.39
			c-33.46-11.96-45.41-40.65-35.85-83.69c48.99,9.56,71.7,33.48,65.72,65.76c-1.19,4.78-4.78,11.96-7.17,17.93
			C1599.18,757.66,1583.65,733.75,1568.11,724.19L1568.11,724.19z"/>
		<path class="st3" d="M1827.43,858.09c-17.92,4.78-53.77,25.11-58.55,35.87c3.58,0,9.56,3.59,13.14,4.78
			c33.46,7.17,57.36-9.56,71.7-49.02c-44.21-17.93-74.09-9.56-86.04,19.13c-1.19,4.78-2.39,11.96-3.58,17.93
			C1785.6,868.85,1810.7,858.09,1827.43,858.09L1827.43,858.09z"/>
		<path class="st3" d="M2046.11,1519.25c-13.14,5.98-35.85,22.72-37.04,31.09c2.39,1.2,7.17,2.39,9.56,2.39
			c23.9,1.2,39.43-11.96,44.21-41.85c-32.26-8.37-52.58,1.2-57.36,22.72c-1.19,3.59-1.19,8.37-1.19,13.15
			C2017.43,1531.2,2034.16,1521.64,2046.11,1519.25L2046.11,1519.25z"/>
		<path class="st3" d="M1919.44,1087.64c-3.58,21.52-21.51,65.76-33.46,72.93c-1.2-3.59-5.97-11.96-7.17-15.54
			c-13.14-38.26,2.39-68.15,47.8-90.86c27.48,50.21,21.51,86.08-11.95,104.02c-5.98,2.39-13.15,4.78-20.31,7.17
			C1913.47,1137.86,1921.83,1106.77,1919.44,1087.64L1919.44,1087.64z"/>
		<path class="st3" d="M1961.27,1186.88c-21.51,5.98-64.53,29.89-70.5,43.04c3.59,1.2,11.95,4.78,15.53,5.98
			c40.63,8.37,70.5-10.76,87.23-59.78c-52.58-21.52-89.62-11.96-103.96,23.91c-2.39,5.98-3.58,14.35-4.78,21.52
			C1909.88,1200.03,1940.95,1186.88,1961.27,1186.88L1961.27,1186.88z"/>
		<path class="st3" d="M1847.74,1166.55c-1.2,17.93-15.53,55-25.09,60.97c-1.19-3.59-5.97-8.37-7.17-11.96
			c-11.95-31.09,1.2-57.39,37.04-76.52c23.9,39.45,20.31,70.54-5.97,86.08c-4.78,2.39-10.75,4.78-16.73,5.98
			C1844.16,1208.4,1851.33,1182.09,1847.74,1166.55L1847.74,1166.55z"/>
		<path class="st3" d="M1519.12,793.53c20.31,13.15,57.36,52.61,59.75,68.15c-4.78,0-14.34,1.2-19.12,1.2
			c-44.21-4.78-68.11-34.67-70.5-90.86c62.14-4.78,96.79,17.93,100.38,58.58c0,7.17-1.19,16.74-2.39,23.91
			C1568.11,823.42,1540.63,799.51,1519.12,793.53L1519.12,793.53z"/>
		<path class="st3" d="M1913.47,1031.45c-10.76,0-34.65,4.78-39.43,9.56c2.39,1.2,4.78,4.78,7.17,4.78
			c16.73,10.76,33.46,5.98,47.8-14.35c-21.51-17.93-39.43-17.93-51.38-3.59c-1.19,2.39-3.59,5.98-4.78,8.37
			C1888.37,1030.26,1903.91,1029.06,1913.47,1031.45L1913.47,1031.45z"/>
		<path class="st3" d="M1883.59,1360.23c-19.12,2.39-57.36,15.54-63.33,25.11c3.58,2.39,9.56,7.17,11.95,7.17
			c32.26,13.15,58.55,0,78.87-37.06c-40.63-23.91-71.7-20.32-88.43,5.98c-2.39,4.78-4.78,11.96-5.97,17.93
			C1840.57,1363.82,1866.86,1357.84,1883.59,1360.23L1883.59,1360.23z"/>
		<path class="st3" d="M1919.44,1289.69c-20.31,2.39-60.94,16.74-68.11,27.5c3.58,2.39,10.76,7.17,13.14,8.37
			c34.65,13.15,62.14,0,84.84-40.65c-44.21-26.3-77.67-22.72-94.4,7.17c-2.39,4.78-4.78,11.96-7.17,17.93
			C1872.84,1294.48,1901.52,1287.3,1919.44,1289.69L1919.44,1289.69z"/>
		<path class="st3" d="M1679.25,1289.69c-11.95-2.39-39.43-1.2-46.6,3.59c2.39,1.2,4.78,5.98,7.17,7.17
			c17.93,14.35,37.04,11.96,58.55-8.37c-21.51-23.91-43.02-27.5-58.55-13.15c-2.39,2.39-4.78,5.98-7.17,9.56
			C1650.57,1283.72,1668.49,1283.72,1679.25,1289.69L1679.25,1289.69z"/>
		<path class="st3" d="M1749.75,1304.04c-7.17,16.74-31.07,47.82-41.82,51.41c-1.2-3.59-3.59-10.76-3.59-14.35
			c-2.39-33.48,16.73-53.8,57.36-62.17c11.95,45.43-1.19,72.93-31.07,80.1c-4.78,1.2-11.95,1.2-17.92,1.2
			C1733.02,1342.3,1747.36,1319.58,1749.75,1304.04L1749.75,1304.04z"/>
		<path class="st3" d="M1816.67,1280.13c-5.97,11.96-22.7,34.67-29.87,37.06c0-2.39-2.39-8.37-2.39-9.56
			c-1.19-23.91,11.95-38.26,40.63-44.24c7.17,31.08-1.19,51.41-21.51,56.19c-3.58,1.2-8.36,1.2-13.14,1.2
			C1804.72,1307.63,1814.28,1292.09,1816.67,1280.13L1816.67,1280.13z"/>
		<path class="st3" d="M1895.54,1427.19c-5.98,13.15-25.09,39.45-34.65,41.85c0-2.39-2.39-8.37-2.39-10.76
			c-2.39-27.5,14.34-45.43,47.8-51.41c9.56,37.06-1.2,59.78-26.29,65.76c-3.58,1.2-9.56,1.2-14.34,1.2
			C1882.4,1459.47,1894.35,1440.34,1895.54,1427.19L1895.54,1427.19z"/>
		<path class="st3" d="M1955.29,1372.19c-2.39,17.93-16.73,56.19-26.29,62.17c-1.19-2.39-5.98-8.37-7.17-11.96
			c-11.95-31.08,0-57.39,37.04-77.71c25.09,40.65,21.51,71.73-5.97,87.28c-4.78,2.39-10.76,4.78-16.73,7.17
			C1950.51,1415.23,1957.68,1388.93,1955.29,1372.19L1955.29,1372.19z"/>
		<path class="st3" d="M1989.94,1319.58c3.59,11.96,3.59,40.65-1.19,46.63c-1.2-1.2-5.97-4.78-7.17-5.98
			c-15.53-17.93-14.34-37.06,4.78-59.78c25.09,20.32,31.07,41.85,16.73,58.58c-2.39,2.39-5.97,4.78-9.56,8.37
			C1998.31,1348.28,1995.92,1329.15,1989.94,1319.58L1989.94,1319.58z"/>
		<path class="st3" d="M2044.91,1271.76c0,17.93-9.56,55-17.92,63.37c-1.2-3.59-7.17-8.37-8.37-11.96
			c-15.53-28.69-5.97-55,27.48-78.91c27.48,35.87,27.48,66.95,3.58,84.89c-3.58,3.59-9.56,5.98-15.53,8.37
			C2046.11,1313.61,2049.69,1287.3,2044.91,1271.76L2044.91,1271.76z"/>
		<path class="st3" d="M2004.28,1239.48c-13.14,9.56-34.65,33.48-35.85,43.04c2.39,0,8.37,1.2,11.95,1.2
			c27.48-3.59,41.82-22.72,41.82-57.39c-39.43-2.39-59.75,11.96-60.94,38.26c0,4.78,1.19,9.56,1.19,14.35
			C1974.41,1259.81,1991.14,1244.26,2004.28,1239.48L2004.28,1239.48z"/>
		<path class="st3" d="M2046.11,1463.05c-15.53-2.39-50.19,0-57.36,5.98c2.39,2.39,5.98,7.17,8.37,9.56
			c22.7,16.74,46.6,11.96,71.7-13.15c-27.48-29.89-53.77-33.48-72.89-15.54c-3.59,3.59-5.98,8.37-8.37,13.15
			C2009.06,1455.88,2032.96,1457.08,2046.11,1463.05L2046.11,1463.05z"/>
		<path class="st3" d="M2089.13,1400.88c-16.73-1.2-53.77,3.59-60.94,10.76c2.39,2.39,7.17,7.17,9.56,8.37
			c26.29,17.93,51.38,11.96,77.67-17.93c-32.26-29.89-60.94-32.28-80.06-11.96c-3.58,3.59-7.17,9.56-9.56,14.35
			C2049.69,1396.1,2074.79,1394.91,2089.13,1400.88L2089.13,1400.88z"/>
		<path class="st3" d="M2101.08,1338.71c-13.15,2.39-43.02,14.35-47.8,21.52c2.39,1.2,7.17,4.78,9.56,5.98
			c25.09,8.37,45.41-2.39,59.75-31.08c-32.26-17.93-56.16-15.54-68.11,7.17c-1.2,2.39-2.39,8.37-4.78,13.15
			C2067.62,1343.5,2089.13,1337.52,2101.08,1338.71L2101.08,1338.71z"/>
		<path class="st3" d="M2133.34,1268.17c-17.92,7.17-50.19,32.28-53.77,44.24c3.58,0,10.75,2.39,14.34,2.39
			c34.65,2.39,56.16-17.93,64.53-59.78c-46.6-10.76-76.48,1.2-83.65,33.48c-1.2,4.78-1.2,11.96-1.2,17.93
			C2092.71,1284.91,2115.42,1270.57,2133.34,1268.17L2133.34,1268.17z"/>
		<path class="st3" d="M2095.1,1185.68c-9.56,16.74-22.7,55-19.12,66.95c2.39-2.39,10.75-3.59,13.15-5.98
			c29.87-16.74,37.04-45.43,20.31-84.89c-45.41,15.54-62.14,43.04-51.38,72.93c2.39,4.78,5.98,10.76,9.56,15.54
			C2071.2,1222.74,2081.96,1197.64,2095.1,1185.68L2095.1,1185.68z"/>
		<path class="st3" d="M2035.35,1177.31c-1.19,11.96-9.56,34.67-15.53,38.26c-1.2-2.39-3.58-5.98-3.58-7.17
			c-8.37-19.13,0-34.67,21.51-47.82c15.53,25.11,13.14,44.24-3.58,53.8c-2.39,1.2-5.97,2.39-9.56,3.59
			C2032.96,1203.61,2037.74,1188.07,2035.35,1177.31L2035.35,1177.31z"/>
		<path class="st3" d="M2109.44,1112.75c-11.95,8.37-34.65,31.09-35.85,39.45c3.59,0,8.36,1.2,11.95,1.2
			c26.29-2.39,40.63-20.32,41.82-52.61c-37.04-3.59-57.36,9.56-59.75,33.48c0,4.78,0,9.56,1.2,14.35
			C2080.76,1130.68,2096.3,1116.34,2109.44,1112.75L2109.44,1112.75z"/>
		<path class="st3" d="M1982.77,1501.31c-9.56-1.2-31.07,0-35.85,3.59c1.2,1.2,3.58,4.78,4.78,5.98
			c15.53,10.76,29.87,8.37,45.41-8.37c-16.73-17.93-33.46-20.32-45.41-9.56c-2.39,2.39-3.58,5.98-5.97,8.37
			C1960.07,1496.53,1974.41,1497.72,1982.77,1501.31L1982.77,1501.31z"/>
		<path class="st3" d="M2114.22,1509.68c-13.15,4.78-39.43,21.52-41.82,31.08c2.39,0,7.17,2.39,9.56,2.39
			c26.29,3.59,44.21-10.76,52.58-41.85c-35.85-10.76-57.36-2.39-64.53,20.32c-1.19,3.59-1.19,9.56-2.39,14.35
			C2083.15,1520.44,2101.08,1510.88,2114.22,1509.68L2114.22,1509.68z"/>
		<path class="st3" d="M2004.28,1629.24c-7.17-11.96-28.68-34.67-38.24-35.87c0,2.39-1.2,8.37-1.2,10.76
			c2.39,26.3,19.12,40.65,52.58,43.04c3.58-37.06-9.56-57.39-33.46-59.78c-3.58,0-9.56,1.2-13.14,1.2
			C1987.55,1600.54,2001.89,1616.09,2004.28,1629.24L2004.28,1629.24z"/>
		<path class="st3" d="M2050.89,1613.7c-4.78-8.37-20.31-22.72-26.29-23.91c0,1.2-1.19,5.98-1.19,7.17
			c1.19,17.93,13.14,27.5,35.85,28.69c2.39-23.91-5.97-38.26-22.7-39.45c-2.39-1.2-5.97,0-9.56,0
			C2038.94,1594.57,2048.5,1605.33,2050.89,1613.7L2050.89,1613.7z"/>
		<path class="st3" d="M2109.44,1617.28c-7.17-11.96-28.68-33.48-37.04-34.67c0,2.39-1.2,8.37-1.2,10.76
			c2.39,25.11,19.12,39.45,50.19,41.85c4.78-35.87-8.36-56.19-32.26-58.58c-3.58,0-8.36,0-13.15,1.2
			C2093.91,1588.59,2107.05,1605.33,2109.44,1617.28L2109.44,1617.28z"/>
		<path class="st3" d="M2164.41,1581.42c-10.75-5.98-35.85-11.96-43.02-9.56c1.19,2.39,2.39,7.17,3.58,8.37
			c13.15,19.13,31.07,21.52,56.16,8.37c-13.15-27.5-31.07-37.06-50.19-28.69c-2.39,1.2-5.98,4.78-9.56,7.17
			C2139.32,1567.07,2157.24,1573.05,2164.41,1581.42L2164.41,1581.42z"/>
		<path class="st3" d="M2194.29,1514.46c-16.73,1.2-51.38,13.15-57.36,21.52c3.58,2.39,8.36,5.98,10.75,7.17
			c28.68,10.76,52.58,0,70.5-32.28c-35.85-22.72-63.33-20.32-77.67,3.59c-2.39,4.78-4.78,10.76-5.97,15.54
			C2154.85,1516.85,2178.75,1512.07,2194.29,1514.46L2194.29,1514.46z"/>
		<path class="st3" d="M2119,1445.12c-11.95,1.2-35.85,9.56-39.43,15.54c2.39,1.2,5.97,3.59,7.17,3.59
			c20.31,8.37,35.85,1.2,48.99-21.52c-25.09-15.54-44.21-14.35-53.77,2.39c-2.39,3.59-3.58,7.17-4.78,10.76
			C2091.52,1447.51,2108.25,1442.73,2119,1445.12L2119,1445.12z"/>
		<path class="st3" d="M2154.85,1460.66c-9.56,5.98-26.29,23.91-27.48,31.08c2.39,0,5.97,1.2,8.36,1.2
			c21.51-2.39,32.26-15.54,33.46-41.85c-28.68-2.39-45.41,7.17-46.6,27.5c0,2.39,0,7.17,1.2,10.76
			C2132.15,1475.01,2145.29,1464.25,2154.85,1460.66L2154.85,1460.66z"/>
		<path class="st3" d="M2203.85,1402.08c-20.31,1.2-60.94,15.54-68.11,25.11c3.58,2.39,9.56,7.17,13.14,8.37
			c33.46,14.35,62.14,1.2,84.84-37.06c-43.02-27.5-76.48-25.11-94.4,3.59c-2.39,4.78-4.78,11.96-7.17,17.93
			C2157.24,1404.47,2185.92,1398.49,2203.85,1402.08L2203.85,1402.08z"/>
		<path class="st3" d="M2213.41,1455.88c-11.95,4.78-32.26,21.52-34.65,28.69c2.39,1.2,7.17,2.39,9.56,2.39
			c22.7,1.2,35.85-11.96,40.63-40.65c-29.87-5.98-48.99,2.39-53.77,22.72c0,3.59,0,8.37,0,11.96
			C2187.12,1466.64,2201.46,1457.08,2213.41,1455.88L2213.41,1455.88z"/>
		<path class="st3" d="M1939.76,1619.67c-2.39-11.96-11.95-33.48-17.92-37.06c-1.19,2.39-3.58,5.98-4.78,8.37
			c-4.78,19.13,3.58,34.67,27.48,44.24c11.95-25.11,8.36-44.24-8.37-51.41c-3.58-2.39-7.17-2.39-10.76-3.59
			C1934.98,1593.37,1940.95,1608.91,1939.76,1619.67L1939.76,1619.67z"/>
		<path class="st3" d="M1885.98,1601.74c-2.39-9.56-10.76-28.69-16.73-31.08c0,1.2-2.39,4.78-2.39,5.98
			c-4.78,17.93,2.39,29.89,22.7,39.45c10.76-22.72,7.17-38.26-7.17-45.43c-2.39-1.2-5.97-2.39-9.56-2.39
			C1882.4,1579.02,1885.98,1593.37,1885.98,1601.74L1885.98,1601.74z"/>
		<path class="st3" d="M1534.65,950.15c21.51,11.96,60.94,50.21,63.33,65.76c-4.78,0-14.34,2.39-19.12,1.2
			c-45.41-2.39-70.5-31.09-75.28-87.28c63.33-8.37,99.18,13.15,103.96,55c1.19,7.17,0,15.54-1.2,23.91
			C1586.04,977.65,1557.36,954.93,1534.65,950.15L1534.65,950.15z"/>
		<path class="st3" d="M1547.8,885.59c11.95,5.98,33.46,26.3,34.65,35.87c-2.39,0-7.17,1.2-9.56,1.2
			c-25.09-2.39-39.43-17.93-41.82-49.02c34.65-4.78,54.97,7.17,57.36,29.89c0,4.78,0,9.56-1.19,14.35
			C1576.48,899.94,1559.75,887.98,1547.8,885.59L1547.8,885.59z"/>
		<path class="st3" d="M1563.33,1041.02c11.95,7.17,34.65,28.69,35.85,37.06c-2.39,0-8.36,1.2-10.76,1.2
			c-25.09-1.2-39.43-17.93-41.82-49.02c34.65-4.78,54.97,7.17,57.36,31.08c1.19,3.59,0,8.37,0,13.15
			C1592.01,1056.56,1576.48,1044.6,1563.33,1041.02L1563.33,1041.02z"/>
		<path class="st3" d="M1529.87,660.82c13.14,7.17,37.04,26.3,39.43,35.87c-2.39,0-8.36,2.39-10.75,2.39
			c-27.48,0-43.02-15.54-47.8-49.02c35.85-7.17,58.55,3.59,63.33,28.69c0,3.59,0,8.37,0,13.15
			C1559.75,675.17,1543.02,663.21,1529.87,660.82L1529.87,660.82z"/>
		<path class="st3" d="M1667.3,892.76c-9.56,0-29.87,8.37-33.46,13.15c1.19,1.2,4.78,3.59,5.97,3.59c17.93,7.17,31.07,0,41.82-19.13
			c-21.51-13.15-38.24-11.96-46.6,2.39c-1.19,2.39-2.39,5.98-3.58,9.56C1644.59,893.96,1658.93,890.37,1667.3,892.76L1667.3,892.76z
			"/>
		<path class="st3" d="M1728.24,1046.99c-17.92,4.78-54.97,25.11-59.75,35.87c3.58,1.2,10.76,4.78,13.14,4.78
			c34.65,7.17,59.75-8.37,74.09-50.21c-45.41-17.93-76.48-9.56-88.43,20.32c-1.19,4.78-2.39,11.96-3.58,17.93
			C1685.22,1057.75,1710.32,1046.99,1728.24,1046.99L1728.24,1046.99z"/>
		<path class="st3" d="M1801.14,988.41c4.78,14.35,7.17,46.63,2.39,53.8c-2.39-1.2-7.17-4.78-9.56-5.98
			c-19.12-19.13-17.92-41.85,2.39-69.34c31.07,21.52,38.24,45.43,23.9,65.76c-2.39,3.59-7.17,7.17-10.75,10.76
			C1813.09,1020.69,1809.5,1000.37,1801.14,988.41L1801.14,988.41z"/>
		<path class="st3" d="M1782.02,1201.22c-10.76-9.56-39.43-22.72-48.99-20.33c1.19,2.39,2.39,8.37,3.58,9.56
			c10.76,25.11,32.26,32.28,63.33,22.72c-8.36-35.87-27.48-51.41-51.38-44.24c-4.78,1.2-9.56,3.59-13.14,5.98
			C1756.92,1179.7,1774.85,1190.46,1782.02,1201.22L1782.02,1201.22z"/>
		<path class="st3" d="M2172.78,1122.31c-10.75,7.17-31.07,27.5-31.07,35.87c2.39,0,7.17,1.2,9.56,0
			c23.9-1.2,35.85-17.93,38.24-46.63c-33.46-3.59-52.58,8.37-53.77,29.89c0,3.59,0,8.37,1.2,13.15
			C2146.49,1137.86,2162.02,1125.9,2172.78,1122.31L2172.78,1122.31z"/>
		<path class="st3" d="M2111.83,984.82c-14.34,3.59-40.63,17.93-44.21,25.11c2.39,1.2,8.36,3.59,10.76,4.78
			c23.9,4.78,41.82-7.17,52.58-37.06c-32.26-13.15-54.97-7.17-63.33,15.54c-1.2,3.59-2.39,8.37-2.39,13.15
			C2080.76,992,2098.69,984.82,2111.83,984.82L2111.83,984.82z"/>
		<path class="st3" d="M2160.83,1060.14c-8.37,7.17-22.71,27.5-22.71,35.87c2.39-1.2,7.17-1.2,8.36-1.2
			c20.31-4.78,29.87-20.32,27.48-46.63c-29.87,1.2-44.21,14.35-43.02,33.48c0,3.59,1.19,8.37,2.39,11.96
			C2140.51,1076.88,2151.27,1064.93,2160.83,1060.14L2160.83,1060.14z"/>
		<path class="st3" d="M2212.21,1234.7c-9.56,5.98-27.48,23.91-28.68,29.89c2.39,1.2,7.17,1.2,8.36,1.2
			c21.51-1.2,32.26-14.35,34.65-39.45c-28.68-3.59-45.41,5.98-46.6,25.11c-1.19,2.39,0,7.17,0,10.76
			C2189.51,1247.85,2202.65,1238.29,2212.21,1234.7L2212.21,1234.7z"/>
		<path class="st3" d="M2221.77,1350.67c-11.95,2.39-33.46,11.96-37.04,17.93c1.2,1.2,5.97,3.59,7.17,3.59
			c20.31,5.98,34.65-2.39,46.6-25.11c-26.29-13.15-44.21-9.56-53.77,7.17c-1.19,2.39-2.39,7.17-2.39,9.56
			C2195.48,1354.26,2211.02,1349.47,2221.77,1350.67L2221.77,1350.67z"/>
		<path class="st3" d="M1865.67,763.64c-3.58,11.96-5.97,37.06-1.2,44.24c1.2-1.2,5.97-3.59,7.17-5.98
			c15.53-15.54,14.34-33.48-2.39-55c-23.9,16.74-29.87,35.87-19.12,52.61c2.39,2.39,5.97,5.98,8.36,8.37
			C1856.11,789.94,1859.69,773.21,1865.67,763.64L1865.67,763.64z"/>
		<path class="st3" d="M1614.72,666.8c4.78,15.54,7.17,50.21,2.39,59.78c-2.39-2.39-8.36-5.98-10.75-7.17
			c-20.31-21.52-19.12-46.63,2.39-75.32c34.65,23.91,41.82,49.02,26.29,71.73c-2.39,3.59-7.17,7.17-11.95,10.76
			C1626.67,702.67,1623.08,679.95,1614.72,666.8L1614.72,666.8z"/>
		<path class="st3" d="M1686.42,675.17c-9.56,2.39-27.48,11.96-31.07,17.93c2.39,1.2,5.98,2.39,7.17,2.39
			c17.92,4.78,31.07-4.78,38.24-25.11c-22.7-9.56-39.43-5.98-45.41,9.56c-1.19,3.59-1.19,7.17-2.39,9.56
			C1664.91,679.95,1678.05,673.97,1686.42,675.17L1686.42,675.17z"/>
		<path class="st3" d="M1304.02,811.46c17.92,9.56,51.38,39.45,53.77,52.61c-3.59,0-11.95,2.39-15.53,2.39
			c-38.24-1.2-59.75-25.11-64.53-70.54c51.38-9.56,81.26,7.17,87.23,41.85c0,5.98,0,13.15-1.19,20.32
			C1345.85,832.99,1321.95,815.05,1304.02,811.46L1304.02,811.46z"/>
		<path class="st3" d="M1186.91,740.93c16.73,11.96,45.41,45.43,46.6,57.39c-3.58,0-11.95,1.2-15.53,1.2
			c-37.04-5.98-56.16-31.09-54.97-77.71c51.38-2.39,80.06,17.93,80.06,52.61c0,5.98-1.19,13.15-2.39,19.13
			C1226.35,767.23,1203.64,746.9,1186.91,740.93L1186.91,740.93z"/>
		<path class="st3" d="M1168.99,809.07c9.56,2.39,27.48,11.96,31.07,17.93c-2.39,1.2-5.97,2.39-7.17,2.39
			c-17.92,4.78-31.07-4.78-38.24-25.11c22.71-9.56,39.43-5.98,45.41,9.56c1.19,3.59,1.19,7.17,2.39,9.56
			C1190.5,813.86,1177.35,807.88,1168.99,809.07L1168.99,809.07z"/>
		<path class="st3" d="M796.15,1296.87c17.92,4.78,52.58,23.91,57.36,34.67c-3.59,1.2-9.56,4.78-13.14,4.78
			c-32.26,7.17-56.16-8.37-70.5-47.82c43.02-17.93,72.89-9.56,84.84,19.13c1.19,4.78,2.39,11.96,3.58,16.74
			C837.98,1307.63,812.88,1296.87,796.15,1296.87L796.15,1296.87z"/>
		<path class="st3" d="M1262.2,1447.51c9.56-9.56,34.65-23.91,43.02-22.72c-1.19,2.39-1.19,8.37-2.39,10.76
			c-8.36,22.72-26.29,31.08-56.16,25.11c5.97-33.48,21.51-49.02,44.21-45.43c3.58,1.2,8.36,3.59,11.95,4.78
			C1283.71,1425.99,1268.17,1436.75,1262.2,1447.51L1262.2,1447.51z"/>
		<path class="st3" d="M845.15,1361.43c9.56,2.39,27.48,11.96,31.07,17.93c-2.39,1.2-5.97,2.39-7.17,3.59
			c-17.92,3.59-31.07-4.78-38.24-26.3c22.71-9.56,39.43-4.78,45.41,10.76c1.2,2.39,1.2,5.98,2.39,8.37
			C866.66,1366.21,853.51,1361.43,845.15,1361.43L845.15,1361.43z"/>
		<path class="st3" d="M817.66,1183.29c17.92,10.76,48.99,43.04,50.19,56.19c-3.58,0-11.95,1.2-15.53,1.2
			c-37.04-3.59-57.36-28.69-59.75-75.32c52.58-4.78,81.26,14.35,84.84,49.02c0,5.98-1.2,13.15-2.39,20.32
			C859.49,1208.4,835.59,1189.27,817.66,1183.29L817.66,1183.29z"/>
		<path class="st3" d="M1324.34,725.38c13.14,13.15,34.65,49.02,33.46,60.97c-3.59,0-11.95-1.2-14.34-2.39
			c-33.46-10.76-45.41-38.26-37.04-80.1c47.8,7.17,70.5,29.89,64.53,62.17c-1.19,4.78-3.58,11.96-5.97,17.93
			C1356.6,756.47,1339.87,733.75,1324.34,725.38L1324.34,725.38z"/>
		<path class="st3" d="M888.17,1039.82c15.53,4.78,46.6,21.52,50.19,31.09c-2.39,0-8.36,3.59-10.76,3.59
			c-28.68,7.17-50.19-7.17-62.14-41.85c38.24-15.54,63.33-8.37,74.09,16.74c1.2,4.78,2.39,10.76,3.58,15.54
			C924.02,1049.38,902.51,1039.82,888.17,1039.82L888.17,1039.82z"/>
		<path class="st3" d="M1263.39,703.86c0,16.74,9.56,52.61,17.92,59.78c2.39-2.39,5.97-8.37,7.17-10.76
			c14.34-28.69,4.78-52.61-27.48-74.13c-25.09,34.67-25.09,63.37-1.2,80.1c3.58,2.39,9.56,4.78,15.53,7.17
			C1263.39,743.32,1258.61,719.41,1263.39,703.86L1263.39,703.86z"/>
		<path class="st3" d="M962.26,1005.15c13.15,13.15,33.46,49.02,32.26,59.78c-3.58,0-10.76-1.2-14.34-1.2
			c-32.26-11.96-44.21-38.26-37.04-78.91c47.8,5.98,69.31,28.69,64.53,59.78c-1.19,5.98-3.58,11.96-5.98,17.93
			C993.33,1036.23,976.6,1013.52,962.26,1005.15L962.26,1005.15z"/>
		<path class="st3" d="M1184.52,1417.62c16.73-3.59,51.38-2.39,59.75,4.78c-2.39,2.39-5.98,7.17-8.36,9.56
			c-23.9,17.93-48.99,14.35-76.48-10.76c28.68-32.28,56.16-37.06,76.48-17.93c3.59,2.39,7.17,7.17,9.56,11.96
			C1221.57,1409.25,1197.67,1410.45,1184.52,1417.62L1184.52,1417.62z"/>
		<path class="st3" d="M1148.67,1100.79c10.76,1.2,33.46,11.96,37.04,19.13c-1.19,0-5.97,2.39-7.17,3.59
			c-20.31,5.98-35.85-3.59-46.6-27.5c26.29-13.15,45.41-9.56,53.77,8.37c1.2,3.59,2.39,7.17,2.39,10.76
			C1174.96,1104.38,1159.43,1099.6,1148.67,1100.79L1148.67,1100.79z"/>
		<path class="st3" d="M961.06,1099.6c23.9,8.37,70.5,39.45,76.48,53.8c-4.78,1.2-14.34,5.98-19.12,5.98
			c-46.6,5.98-77.67-19.13-92.01-75.32c62.14-19.13,101.57-4.78,114.72,37.06c2.39,7.17,2.39,16.74,2.39,25.11
			C1017.23,1118.73,984.96,1100.79,961.06,1099.6L961.06,1099.6z"/>
		<path class="st3" d="M1031.57,1036.23c0,13.15,3.58,39.45,9.56,45.43c1.19-2.39,4.78-5.98,5.97-7.17
			c11.95-20.32,7.17-38.26-14.34-56.19c-21.51,23.91-22.7,44.24-7.17,58.58c2.39,2.39,7.17,3.59,10.75,5.98
			C1029.18,1064.93,1027.98,1046.99,1031.57,1036.23L1031.57,1036.23z"/>
		<path class="st3" d="M932.38,933.41c16.73,3.59,50.19,20.32,54.97,29.89c-3.59,1.2-9.56,3.59-11.95,4.78
			c-29.87,8.37-52.58-5.98-66.92-41.85c38.24-17.93,66.92-11.96,77.67,14.35c2.39,4.78,3.59,10.76,4.78,16.74
			C970.62,941.78,947.92,932.22,932.38,933.41L932.38,933.41z"/>
		<path class="st3" d="M1025.59,980.04c20.31,0,62.14,9.56,70.5,20.32c-3.58,1.2-9.56,7.17-11.95,8.37
			c-33.46,17.93-62.14,7.17-88.43-29.89c39.43-31.08,74.09-31.08,94.4-4.78c3.58,4.78,5.97,11.96,9.56,17.93
			C1072.19,978.85,1042.32,975.26,1025.59,980.04L1025.59,980.04z"/>
		<path class="st3" d="M1137.92,895.16c-7.17,14.35-16.73,49.02-13.14,58.58c2.39-1.2,9.56-3.59,11.95-4.78
			c25.09-16.74,28.68-43.04,11.95-76.52c-38.24,17.93-51.38,41.85-39.43,66.95c1.19,4.78,4.78,9.56,8.36,13.15
			C1118.8,928.63,1127.16,905.92,1137.92,895.16L1137.92,895.16z"/>
		<path class="st3" d="M1277.73,993.19c11.95-1.2,38.24,1.2,44.21,5.98c-1.19,1.2-4.78,4.78-5.97,7.17
			c-19.12,13.15-38.24,9.56-57.36-10.76c21.51-22.72,43.02-26.3,57.36-11.96c2.39,2.39,4.78,7.17,7.17,10.76
			C1305.22,988.41,1287.29,988.41,1277.73,993.19L1277.73,993.19z"/>
		<path class="st3" d="M1044.71,807.88c-3.58,11.96-3.58,40.65,1.2,47.82c2.39-2.39,5.97-4.78,8.36-7.17
			c15.53-17.93,13.14-38.26-5.98-60.97c-26.29,21.52-32.26,43.04-17.92,59.78c2.39,3.59,7.17,5.98,9.56,8.37
			C1036.35,836.57,1038.74,817.44,1044.71,807.88L1044.71,807.88z"/>
		<path class="st3" d="M1097.29,827.01c-4.78,19.13-7.17,62.17,0,72.93c3.58-2.39,10.76-7.17,11.95-9.56
			c25.09-26.3,23.9-57.39-4.78-92.06c-40.63,29.89-48.99,62.17-28.68,88.47c2.39,4.78,8.36,9.56,13.15,13.15
			C1084.14,871.24,1087.73,842.55,1097.29,827.01L1097.29,827.01z"/>
		<path class="st3" d="M1170.18,962.11c-9.56,2.39-28.68,13.15-31.07,19.13c2.39,0,5.97,2.39,7.17,2.39
			c17.92,3.59,29.87-4.78,38.24-26.3c-23.9-9.56-39.43-4.78-45.41,10.76c-1.2,2.39-2.39,5.98-2.39,9.56
			C1147.48,968.09,1160.62,962.11,1170.18,962.11L1170.18,962.11z"/>
		<path class="st3" d="M998.11,890.37c23.9,5.98,70.5,32.28,77.67,46.63c-4.78,1.2-13.14,5.98-17.92,7.17
			c-44.21,8.37-76.48-13.15-94.4-65.76c57.36-23.91,97.99-11.96,113.52,26.3c2.39,5.98,3.58,15.54,4.78,23.91
			C1054.27,904.72,1020.81,890.37,998.11,890.37L998.11,890.37z"/>
		<path class="st3" d="M1210.81,925.04c17.92,5.98,54.97,25.11,59.75,35.87c-3.58,1.2-10.75,4.78-13.14,5.98
			c-34.65,7.17-59.75-9.56-74.09-50.21c45.41-19.13,76.48-9.56,88.43,20.32c1.2,4.78,2.39,11.96,3.59,17.93
			C1253.83,935.8,1227.54,925.04,1210.81,925.04L1210.81,925.04z"/>
		<path class="st3" d="M1431.89,724.19c-13.14,14.35-33.46,51.41-32.26,63.37c3.58,0,11.95-1.2,14.34-2.39
			c33.46-11.96,45.41-40.65,35.85-83.69c-48.99,9.56-70.5,33.48-64.53,65.76c1.19,4.78,3.58,11.96,7.17,17.93
			C1400.82,757.66,1416.35,733.75,1431.89,724.19L1431.89,724.19z"/>
		<path class="st3" d="M1172.57,858.09c17.92,4.78,53.77,25.11,58.55,35.87c-3.58,0-10.76,3.59-13.14,4.78
			c-33.46,7.17-57.36-9.56-71.7-49.02c43.02-17.93,74.09-9.56,84.84,19.13c2.39,4.78,3.58,11.96,4.78,17.93
			C1214.4,868.85,1189.3,858.09,1172.57,858.09L1172.57,858.09z"/>
		<path class="st3" d="M953.89,1519.25c11.95,5.98,34.65,22.72,37.04,31.09c-2.39,1.2-7.17,2.39-9.56,2.39
			c-23.9,1.2-39.43-11.96-45.41-41.85c33.46-8.37,53.77,1.2,58.55,22.72c1.2,3.59,0,8.37,0,13.15
			C982.57,1531.2,965.84,1521.64,953.89,1519.25L953.89,1519.25z"/>
		<path class="st3" d="M1079.36,1087.64c3.58,21.52,21.51,65.76,34.65,72.93c1.2-3.59,5.97-11.96,7.17-15.54
			c13.14-38.26-3.59-68.15-47.8-90.86c-27.48,50.21-21.51,86.08,11.95,104.02c4.78,2.39,13.15,4.78,20.32,7.17
			C1086.53,1137.86,1076.97,1106.77,1079.36,1087.64L1079.36,1087.64z"/>
		<path class="st3" d="M1037.54,1186.88c22.7,5.98,65.72,29.89,71.7,43.04c-4.78,1.2-11.95,4.78-16.73,5.98
			c-40.63,8.37-69.31-10.76-87.23-59.78c53.77-21.52,90.82-11.96,105.16,23.91c2.39,5.98,3.58,14.35,4.78,21.52
			C1088.92,1200.03,1059.05,1186.88,1037.54,1186.88L1037.54,1186.88z"/>
		<path class="st3" d="M1151.06,1166.55c2.39,17.93,15.53,55,25.09,60.97c2.39-3.59,5.97-8.37,7.17-11.96
			c11.95-31.09,0-57.39-35.85-76.52c-25.09,39.45-21.51,70.54,5.97,86.08c3.59,2.39,10.75,4.78,16.73,5.98
			C1155.84,1208.4,1148.67,1182.09,1151.06,1166.55L1151.06,1166.55z"/>
		<path class="st3" d="M1483.27,1084.06c-15.53,17.93-37.04,62.17-33.46,75.32c3.58-1.2,13.14-2.39,16.73-3.59
			c38.24-16.74,50.19-49.02,37.04-99.23c-57.36,13.15-81.26,43.04-71.7,80.1c1.19,5.98,4.78,13.15,8.37,20.32
			C1448.62,1123.51,1465.35,1096.01,1483.27,1084.06L1483.27,1084.06z"/>
		<path class="st3" d="M1454.59,805.49c-14.34,9.56-40.63,37.06-41.82,47.82c3.58,0,10.76,1.2,13.15,0
			c31.07-2.39,47.8-23.91,50.19-62.17c-44.21-4.78-68.11,11.96-70.5,40.65c0,4.78,0,10.76,1.2,16.74
			C1419.94,827.01,1439.06,810.27,1454.59,805.49L1454.59,805.49z"/>
		<path class="st3" d="M1086.53,1031.45c10.76,0,34.65,4.78,38.24,9.56c-1.19,1.2-4.78,4.78-5.98,4.78
			c-17.92,10.76-33.46,5.98-48.99-14.35c21.51-17.93,40.63-17.93,51.38-3.59c2.39,2.39,3.58,5.98,5.97,8.37
			C1111.63,1030.26,1096.09,1029.06,1086.53,1031.45L1086.53,1031.45z"/>
		<path class="st3" d="M1116.41,1360.23c19.12,2.39,56.16,15.54,63.33,25.11c-3.58,2.39-9.56,7.17-11.95,7.17
			c-32.26,13.15-58.55,0-78.87-37.06c40.63-23.91,71.7-20.32,87.23,5.98c3.58,4.78,4.78,11.96,7.17,17.93
			C1159.43,1363.82,1133.14,1357.84,1116.41,1360.23L1116.41,1360.23z"/>
		<path class="st3" d="M1080.56,1289.69c19.12,2.39,60.94,16.74,66.92,27.5c-3.58,2.39-9.56,7.17-13.14,8.37
			c-33.46,13.15-62.14,0-83.65-40.65c43.02-26.3,76.48-22.72,94.4,7.17c2.39,4.78,4.78,11.96,5.97,17.93
			C1125.97,1294.48,1098.48,1287.3,1080.56,1289.69L1080.56,1289.69z"/>
		<path class="st3" d="M1320.75,1287.3c13.14-2.39,40.63-1.2,46.6,3.59c-2.39,2.39-4.78,5.98-5.97,7.17
			c-19.12,14.35-38.24,11.96-58.55-8.37c21.51-23.91,41.82-27.5,57.36-13.15c3.58,2.39,5.97,5.98,8.36,9.56
			C1349.43,1281.33,1331.51,1282.52,1320.75,1287.3L1320.75,1287.3z"/>
		<path class="st3" d="M1250.25,1304.04c7.17,16.74,31.07,47.82,41.82,51.41c1.19-3.59,3.58-10.76,3.58-14.35
			c2.39-33.48-16.73-53.8-57.36-62.17c-11.95,45.43,0,72.93,31.07,80.1c4.78,1.2,10.76,1.2,16.73,1.2
			C1265.78,1342.3,1252.64,1319.58,1250.25,1304.04L1250.25,1304.04z"/>
		<path class="st3" d="M1183.33,1280.13c4.78,11.96,21.51,34.67,29.87,37.06c0-2.39,2.39-8.37,2.39-9.56
			c1.19-23.91-11.95-38.26-40.63-44.24c-8.36,31.08,1.19,51.41,21.51,56.19c3.58,1.2,8.36,1.2,11.95,1.2
			C1194.08,1307.63,1184.52,1292.09,1183.33,1280.13L1183.33,1280.13z"/>
		<path class="st3" d="M1103.26,1427.19c5.98,13.15,26.29,39.45,34.65,41.85c1.2-2.39,3.59-8.37,3.59-10.76
			c1.19-27.5-14.34-45.43-47.8-51.41c-9.56,37.06,1.2,59.78,25.09,65.76c4.78,1.2,10.76,1.2,15.53,1.2
			C1116.41,1459.47,1105.65,1440.34,1103.26,1427.19L1103.26,1427.19z"/>
		<path class="st3" d="M1044.71,1372.19c2.39,17.93,15.53,56.19,26.29,62.17c1.19-2.39,5.97-8.37,7.17-11.96
			c11.95-31.08-1.19-57.39-38.24-77.71c-23.9,40.65-20.32,71.73,7.17,87.28c3.58,2.39,10.76,4.78,16.73,7.17
			C1048.3,1415.23,1042.32,1388.93,1044.71,1372.19L1044.71,1372.19z"/>
		<path class="st3" d="M1008.86,1319.58c-2.39,11.96-2.39,40.65,2.39,46.63c1.2-1.2,5.97-4.78,7.17-5.98
			c15.53-17.93,13.14-37.06-4.78-59.78c-26.29,20.32-31.07,41.85-17.92,58.58c2.39,2.39,5.97,4.78,9.56,8.37
			C1001.69,1348.28,1004.08,1329.15,1008.86,1319.58L1008.86,1319.58z"/>
		<path class="st3" d="M955.09,1271.76c0,17.93,8.36,55,17.92,63.37c1.2-3.59,5.97-8.37,8.36-11.96c14.34-28.69,5.98-55-27.48-78.91
			c-28.68,35.87-28.68,66.95-3.59,84.89c3.59,3.59,9.56,5.98,15.53,8.37C953.89,1313.61,950.31,1287.3,955.09,1271.76
			L955.09,1271.76z"/>
		<path class="st3" d="M995.72,1239.48c13.14,9.56,34.65,33.48,35.85,43.04c-3.58,0-9.56,1.2-11.95,1.2
			c-27.48-3.59-41.82-22.72-41.82-57.39c39.43-2.39,59.75,11.96,60.94,38.26c0,4.78-1.19,9.56-2.39,14.35
			C1025.59,1259.81,1008.86,1244.26,995.72,1239.48L995.72,1239.48z"/>
		<path class="st3" d="M953.89,1463.05c15.53-2.39,50.19,0,57.36,5.98c-2.39,2.39-5.97,7.17-8.37,9.56
			c-23.9,16.74-47.8,11.96-72.89-13.15c27.48-29.89,53.77-33.48,74.09-15.54c2.39,3.59,5.97,8.37,8.36,13.15
			C989.74,1455.88,967.04,1457.08,953.89,1463.05L953.89,1463.05z"/>
		<path class="st3" d="M910.87,1400.88c16.73-1.2,52.58,3.59,60.94,10.76c-2.39,2.39-7.17,7.17-9.56,8.37
			c-26.29,17.93-52.58,11.96-77.67-17.93c32.26-29.89,60.94-32.28,80.06-11.96c3.58,3.59,5.98,9.56,8.36,14.35
			C949.11,1396.1,925.21,1394.91,910.87,1400.88L910.87,1400.88z"/>
		<path class="st3" d="M897.73,1338.71c14.34,2.39,44.21,14.35,48.99,21.52c-2.39,1.2-7.17,4.78-9.56,5.98
			c-25.09,8.37-45.41-2.39-60.94-31.08c32.26-17.93,56.16-15.54,68.11,7.17c2.39,2.39,3.58,8.37,4.78,13.15
			C931.19,1343.5,910.87,1337.52,897.73,1338.71L897.73,1338.71z"/>
		<path class="st3" d="M866.66,1268.17c17.92,7.17,50.19,32.28,53.77,44.24c-3.59,0-10.76,2.39-14.34,2.39
			c-34.65,2.39-56.16-17.93-64.53-59.78c46.6-10.76,75.28,1.2,82.45,33.48c1.2,4.78,1.2,11.96,1.2,17.93
			C907.29,1284.91,883.39,1270.57,866.66,1268.17L866.66,1268.17z"/>
		<path class="st3" d="M904.9,1185.68c9.56,16.74,22.7,55,19.12,66.95c-3.58-2.39-10.75-3.59-13.14-5.98
			c-29.87-16.74-37.04-45.43-20.31-84.89c45.41,15.54,62.14,43.04,50.19,72.93c-1.2,4.78-5.98,10.76-8.37,15.54
			C928.8,1222.74,916.85,1197.64,904.9,1185.68L904.9,1185.68z"/>
		<path class="st3" d="M964.65,1177.31c1.19,11.96,9.56,34.67,15.53,38.26c0-2.39,3.58-5.98,3.58-7.17
			c7.17-19.13,0-34.67-22.7-47.82c-14.34,25.11-11.95,44.24,3.58,53.8c3.58,1.2,7.17,2.39,10.76,3.59
			C967.04,1203.61,962.26,1188.07,964.65,1177.31L964.65,1177.31z"/>
		<path class="st3" d="M890.56,1112.75c11.95,8.37,34.65,31.09,34.65,39.45c-2.39,0-8.37,1.2-10.76,1.2
			c-26.29-2.39-40.63-20.32-41.82-52.61c37.04-3.59,57.36,9.56,59.75,33.48c0,4.78-1.2,9.56-1.2,14.35
			C919.24,1130.68,902.51,1116.34,890.56,1112.75L890.56,1112.75z"/>
		<path class="st3" d="M1017.23,1501.31c9.56-1.2,31.07,0,35.85,3.59c-1.2,1.2-4.78,4.78-5.97,5.98
			c-14.34,10.76-28.68,8.37-44.21-8.37c16.73-17.93,33.46-20.32,45.41-9.56c1.19,2.39,3.58,5.98,4.78,8.37
			C1039.93,1496.53,1025.59,1497.72,1017.23,1501.31L1017.23,1501.31z"/>
		<path class="st3" d="M885.78,1509.68c13.15,4.78,39.43,21.52,41.82,31.08c-2.39,0-8.36,2.39-10.76,2.39
			c-25.09,3.59-43.02-10.76-51.38-41.85c34.65-10.76,57.36-2.39,64.53,20.32c1.19,3.59,1.19,9.56,1.19,14.35
			C916.85,1520.44,897.73,1510.88,885.78,1509.68L885.78,1509.68z"/>
		<path class="st3" d="M994.52,1629.24c7.17-11.96,29.87-34.67,38.24-35.87c0,2.39,1.19,8.37,1.19,10.76
			c-1.19,26.3-19.12,40.65-51.38,43.04c-3.58-37.06,8.37-57.39,33.46-59.78c3.58,0,8.36,1.2,13.14,1.2
			C1011.25,1600.54,998.11,1616.09,994.52,1629.24L994.52,1629.24z"/>
		<path class="st3" d="M949.11,1613.7c4.78-8.37,20.31-22.72,26.29-23.91c0,1.2,1.19,5.98,0,7.17c-1.2,17.93-11.95,27.5-34.65,28.69
			c-2.39-23.91,5.97-38.26,22.7-39.45c2.39-1.2,5.97,0,9.56,0C959.87,1594.57,951.5,1605.33,949.11,1613.7L949.11,1613.7z"/>
		<path class="st3" d="M889.36,1617.28c7.17-11.96,28.68-33.48,38.24-34.67c0,2.39,1.2,8.37,1.2,10.76
			c-2.39,25.11-19.12,39.45-51.38,41.85c-3.58-35.87,8.36-56.19,32.26-58.58c3.58,0,9.56,0,14.34,1.2
			C906.09,1588.59,892.95,1605.33,889.36,1617.28L889.36,1617.28z"/>
		<path class="st3" d="M834.39,1581.42c10.76-5.98,37.04-11.96,44.21-9.56c-1.2,2.39-2.39,7.17-3.58,8.37
			c-13.15,19.13-32.26,21.52-57.36,8.37c13.14-27.5,32.26-37.06,50.19-28.69c3.59,1.2,7.17,4.78,10.76,7.17
			C859.49,1567.07,842.76,1573.05,834.39,1581.42L834.39,1581.42z"/>
		<path class="st3" d="M805.71,1514.46c16.73,1.2,51.38,13.15,56.16,21.52c-2.39,2.39-7.17,5.98-10.75,7.17
			c-27.48,10.76-51.38,0-70.5-32.28c35.85-22.72,64.53-20.32,78.87,3.59c2.39,4.78,4.78,10.76,5.97,15.54
			C843.95,1516.85,820.05,1512.07,805.71,1514.46L805.71,1514.46z"/>
		<path class="st3" d="M881,1445.12c10.76,1.2,34.65,9.56,39.43,15.54c-2.39,1.2-5.98,3.59-8.37,3.59
			c-19.12,8.37-35.85,1.2-47.8-21.52c23.9-15.54,44.21-14.35,53.77,2.39c1.2,3.59,2.39,7.17,3.59,10.76
			C907.29,1447.51,891.75,1442.73,881,1445.12L881,1445.12z"/>
		<path class="st3" d="M843.95,1460.66c9.56,5.98,27.48,23.91,28.68,31.08c-2.39,0-7.17,1.2-8.36,1.2
			c-21.51-2.39-32.26-15.54-33.46-41.85c28.68-2.39,45.41,7.17,46.6,27.5c0,2.39,0,7.17-1.2,10.76
			C867.85,1475.01,854.71,1464.25,843.95,1460.66L843.95,1460.66z"/>
		<path class="st3" d="M796.15,1402.08c19.12,1.2,60.94,15.54,68.11,25.11c-3.58,2.39-9.56,7.17-13.14,8.37
			c-33.46,14.35-62.14,1.2-84.84-37.06c43.02-27.5,76.48-25.11,94.4,3.59c2.39,4.78,4.78,11.96,7.17,17.93
			C841.56,1404.47,814.08,1398.49,796.15,1402.08L796.15,1402.08z"/>
		<path class="st3" d="M786.59,1455.88c10.75,4.78,32.26,21.52,34.65,28.69c-2.39,1.2-7.17,2.39-9.56,2.39
			c-22.7,1.2-37.04-11.96-41.82-40.65c31.07-5.98,50.19,2.39,53.77,22.72c1.19,3.59,1.19,8.37,1.19,11.96
			C812.88,1466.64,797.35,1457.08,786.59,1455.88L786.59,1455.88z"/>
		<path class="st3" d="M1060.24,1619.67c1.19-11.96,11.95-33.48,17.92-37.06c1.19,2.39,3.58,5.98,3.58,8.37
			c5.98,19.13-2.39,34.67-26.29,44.24c-13.14-25.11-8.36-44.24,8.36-51.41c2.39-2.39,7.17-2.39,10.76-3.59
			C1063.83,1593.37,1059.05,1608.91,1060.24,1619.67L1060.24,1619.67z"/>
		<path class="st3" d="M1114.02,1601.74c1.2-9.56,10.76-28.69,15.53-31.08c1.19,1.2,3.58,4.78,3.58,5.98
			c4.78,17.93-2.39,29.89-22.7,39.45c-10.76-22.72-8.36-38.26,7.17-45.43c2.39-1.2,5.98-2.39,8.37-2.39
			C1117.6,1579.02,1112.82,1593.37,1114.02,1601.74L1114.02,1601.74z"/>
		<path class="st3" d="M1451.01,954.93c-17.92,9.56-48.99,39.45-50.19,52.61c3.58,0,10.76,1.2,14.34,1.2
			c37.04-1.2,57.36-25.11,60.94-70.54c-51.38-5.98-80.06,10.76-83.65,44.24c0,5.98,0,13.15,1.19,19.13
			C1410.38,977.65,1433.08,959.72,1451.01,954.93L1451.01,954.93z"/>
		<path class="st3" d="M1504.78,715.82c-11.95,10.76-31.07,38.26-29.87,47.82c2.39,0,8.36,0,11.95,0
			c27.48-7.17,39.43-28.69,34.65-63.37c-39.43,2.39-58.55,20.32-56.16,46.63c0,3.59,1.19,9.56,3.58,14.35
			C1477.3,739.73,1492.83,721.8,1504.78,715.82L1504.78,715.82z"/>
		<path class="st3" d="M1473.71,874.83c-17.93,9.56-50.19,40.65-52.58,53.8c3.59,0,11.95,2.39,15.53,2.39
			c38.24-2.39,58.55-26.3,63.33-74.13c-52.58-5.98-82.45,11.96-87.23,46.63c0,5.98,1.2,13.15,1.2,20.32
			C1431.89,897.55,1455.79,878.42,1473.71,874.83L1473.71,874.83z"/>
		<path class="st3" d="M1436.67,1038.62c-11.95,7.17-33.46,27.5-34.65,37.06c2.39,0,7.17,1.2,9.56,1.2
			c26.29-2.39,39.43-17.93,43.02-50.21c-35.85-3.59-56.16,8.37-58.55,31.09c0,3.59,0,9.56,1.19,13.15
			C1407.99,1054.17,1424.72,1042.21,1436.67,1038.62L1436.67,1038.62z"/>
		<path class="st3" d="M1332.7,892.76c9.56,0,29.87,8.37,33.46,13.15c-2.39,1.2-4.78,3.59-7.17,3.59
			c-16.73,7.17-31.07,0-41.82-19.13c22.7-13.15,38.24-11.96,46.6,2.39c2.39,2.39,2.39,5.98,3.58,9.56
			C1355.41,893.96,1341.07,890.37,1332.7,892.76L1332.7,892.76z"/>
		<path class="st3" d="M1271.76,1046.99c17.93,4.78,54.97,25.11,59.75,35.87c-3.58,1.2-10.76,4.78-14.34,4.78
			c-33.46,7.17-58.55-8.37-72.89-50.21c45.41-17.93,76.48-9.56,88.43,20.32c1.19,4.78,2.39,11.96,3.58,17.93
			C1314.78,1057.75,1288.49,1046.99,1271.76,1046.99L1271.76,1046.99z"/>
		<path class="st3" d="M1197.67,988.41c-4.78,14.35-7.17,46.63-1.2,53.8c1.2-1.2,7.17-4.78,8.36-5.98
			c19.12-19.13,19.12-41.85-1.2-69.34c-31.07,21.52-38.24,45.43-23.9,65.76c2.39,3.59,5.97,7.17,9.56,10.76
			C1186.91,1020.69,1190.5,1000.37,1197.67,988.41L1197.67,988.41z"/>
		<path class="st3" d="M1216.79,1201.22c11.95-9.56,40.63-22.72,48.99-20.33c0,2.39-1.19,8.37-2.39,9.56
			c-10.76,25.11-32.26,32.28-63.33,22.72c8.36-35.87,27.48-51.41,51.38-44.24c3.58,1.2,8.36,3.59,13.14,5.98
			C1243.08,1179.7,1225.15,1190.46,1216.79,1201.22L1216.79,1201.22z"/>
		<path class="st3" d="M827.22,1122.31c10.75,7.17,29.87,27.5,31.07,35.87c-2.39,0-7.17,1.2-9.56,0
			c-23.9-1.2-37.04-17.93-38.24-46.63c33.46-3.59,51.38,8.37,53.77,29.89c0,3.59-1.2,8.37-1.2,13.15
			C852.32,1137.86,837.98,1125.9,827.22,1122.31L827.22,1122.31z"/>
		<path class="st3" d="M888.17,984.82c13.14,3.59,39.43,17.93,43.02,25.11c-2.39,1.2-7.17,3.59-9.56,4.78
			c-25.09,4.78-43.02-7.17-52.58-37.06c32.26-13.15,54.97-7.17,63.33,15.54c1.2,3.59,2.39,8.37,2.39,13.15
			C919.24,992,901.31,984.82,888.17,984.82L888.17,984.82z"/>
		<path class="st3" d="M837.98,1060.14c9.56,7.17,23.9,27.5,23.9,35.87c-2.39-1.2-7.17-1.2-8.36-1.2
			c-21.51-4.78-29.87-20.32-27.48-46.63c28.68,1.2,44.21,14.35,43.02,33.48c-1.19,3.59-2.39,8.37-2.39,11.96
			C859.49,1076.88,847.54,1064.93,837.98,1060.14L837.98,1060.14z"/>
		<path class="st3" d="M787.79,1234.7c9.56,5.98,27.48,23.91,27.48,29.89c-1.2,1.2-5.97,1.2-8.36,1.2
			c-20.31-1.2-31.07-14.35-33.46-39.45c28.68-3.59,44.21,5.98,46.6,25.11c0,2.39,0,7.17,0,10.76
			C810.49,1247.85,797.35,1238.29,787.79,1234.7L787.79,1234.7z"/>
		<path class="st3" d="M778.23,1350.67c10.76,2.39,33.46,11.96,37.04,17.93c-2.39,1.2-5.97,3.59-7.17,3.59
			c-20.31,5.98-35.85-2.39-46.6-25.11c25.09-13.15,44.21-9.56,52.58,7.17c1.2,2.39,2.39,7.17,3.58,9.56
			C804.52,1354.26,787.79,1349.47,778.23,1350.67L778.23,1350.67z"/>
		<path class="st3" d="M1134.33,763.64c3.58,11.96,5.98,37.06,1.2,44.24c-1.2-1.2-5.97-3.59-7.17-5.98
			c-15.53-15.54-15.53-33.48,1.19-55c25.09,16.74,31.07,35.87,19.12,52.61c-1.2,2.39-4.78,5.98-8.36,8.37
			C1142.7,789.94,1140.31,773.21,1134.33,763.64L1134.33,763.64z"/>
		<path class="st3" d="M1384.09,666.8c-4.78,15.54-7.17,50.21-1.19,59.78c2.39-2.39,8.36-5.98,9.56-7.17
			c21.51-21.52,20.31-46.63-2.39-75.32c-33.46,23.91-41.82,49.02-25.09,71.73c2.39,3.59,7.17,7.17,10.76,10.76
			C1372.14,702.67,1375.72,679.95,1384.09,666.8L1384.09,666.8z"/>
		<path class="st3" d="M1312.39,675.17c9.56,2.39,28.68,11.96,31.07,17.93c-1.2,1.2-4.78,2.39-7.17,2.39
			c-16.73,4.78-29.87-4.78-37.04-25.11c22.7-9.56,39.43-5.98,45.41,9.56c1.19,3.59,1.19,7.17,1.19,9.56
			C1335.09,679.95,1321.95,673.97,1312.39,675.17L1312.39,675.17z"/>
		<path class="st3" d="M1451.01,658.43c15.53,4.78,44.21,22.72,47.8,31.09c-3.58,1.2-8.36,3.59-11.95,3.59
			c-27.48,4.78-46.6-9.56-57.36-43.04c37.04-13.15,62.14-4.78,70.5,19.13c1.19,4.78,2.39,10.76,2.39,15.54
			C1485.66,669.19,1465.35,658.43,1451.01,658.43L1451.01,658.43z"/>
		<path class="st3" d="M1489.24,993.19c-5.97,13.15-11.95,43.04-7.17,50.21c1.19-1.2,7.17-3.59,8.37-4.78
			c20.31-15.54,22.7-37.06,5.97-64.56c-31.07,16.74-40.63,38.26-28.68,58.58c1.19,3.59,4.78,7.17,8.36,10.76
			C1474.91,1023.08,1480.88,1002.76,1489.24,993.19L1489.24,993.19z"/>
		<path class="st3" d="M1544.21,1091.23c11.95,7.17,35.85,31.08,38.24,39.45c-3.58,1.2-9.56,2.39-11.95,2.39
			c-27.48-2.39-43.02-20.32-45.41-53.8c38.24-4.78,59.75,7.17,62.14,33.48c1.19,3.59,0,9.56,0,14.35
			C1574.09,1107.97,1557.36,1094.82,1544.21,1091.23L1544.21,1091.23z"/>
		<path class="st3" d="M1172.57,1459.47c5.97,11.96,22.7,34.67,31.07,37.06c0-2.39,1.2-7.17,2.39-9.56
			c1.19-23.91-13.14-39.45-41.82-45.43c-8.36,32.28,1.19,52.61,22.7,57.39c3.59,1.2,8.36,1.2,11.95,1.2
			C1184.52,1486.96,1174.96,1471.42,1172.57,1459.47L1172.57,1459.47z"/>
		<path class="st3" d="M1829.82,1459.47c-4.78,11.96-22.7,34.67-29.87,37.06c-1.19-2.39-2.39-7.17-2.39-9.56
			c-2.39-23.91,11.95-39.45,40.63-45.43c8.36,32.28,0,52.61-21.51,57.39c-3.58,1.2-9.56,1.2-13.14,1.2
			C1817.87,1486.96,1828.62,1471.42,1829.82,1459.47L1829.82,1459.47z"/>
	</g>
	<g>
		<g>
			<path d="M1352.37,2140.61c-1.69,5.96-4.84,14.99-6.73,19.06c-3.27,0.73-13.03,3.06-22.22,3.06c-31.28,0-45.18-20.34-45.18-40.26
				c0-24.92,18.99-41.9,47.35-41.9c10.48,0,19.51,2.41,22.87,2.86c0.56,5.6,1.41,13.96,2.3,19.54l-4.46,0.85
				c-2.5-8.97-5.88-13.62-12.2-16.16c-2.99-1.29-7.56-1.91-11.29-1.91c-18.39,0-27.82,14.68-27.82,34.02
				c0,22.57,11.63,37.57,29.26,37.57c10.93,0,17.45-5.45,23.86-18.34L1352.37,2140.61z"/>
			<path d="M1436.72,2161.73c-1.02,0-2.43-0.04-3.93-0.16c-13.08-0.68-17.64-3.61-21.86-9.54c-4.71-6.49-8.52-13.95-12.55-20.83
				c-2.03-3.48-3.68-4.2-8.35-4.2l-3.06-0.08v18.13c0,9.97,1.25,10.73,10.54,11.78v4.1h-35.38v-4.1c9.49-1.01,10.5-1.81,10.5-11.78
				v-47.02c0-9.81-1.25-10.81-10.5-11.66v-4.1h33.61c10.09,0,16.18,1.17,21.01,4.43c4.88,3.22,8.15,8.59,8.15,16.05
				c0,10.64-6.97,16.63-15.29,20.03c1.94,3.67,6.83,11.62,10.46,17.15c4.32,6.57,6.85,9.75,9.32,12.54
				c2.95,3.27,4.79,4.37,8.05,5.41L1436.72,2161.73z M1391.13,2122.24c5.58,0,9.58-0.89,12.37-3.27c4.25-3.43,6.03-8.11,6.03-14.41
				c0-12.87-7.8-17.51-15.47-17.51c-3.35,0-5.09,0.48-5.86,1.21c-0.93,0.77-1.22,2.13-1.22,4.81v29.17H1391.13z"/>
			<path d="M1504.49,2140.81c-0.65,3.22-3.99,16.63-5.13,20.1h-61.4v-4.02c11.1-1,11.86-1.78,11.86-11.86v-46.77
				c0-10.46-1.41-11.14-9.93-11.91v-4.1h38.52c12.24,0,16.64-0.12,18.25-0.24c0.12,2.47,0.68,12.1,1.17,19.22l-4.34,0.6
				c-1.09-4.11-2.85-8.23-4.65-10.53c-2.09-2.97-4.09-3.74-10.64-3.74h-9.14c-4.3,0-4.7,0.29-4.7,4.19v25.8h12.41
				c7.58,0,8.58-1.81,10.27-10.28h4.38v26.26h-4.38c-1.81-8.87-2.78-10.24-10.39-10.24h-12.29v21.96c0,8.39,1.09,10.3,8.08,10.42
				h9.52c6.99,0,8.59-0.93,11.25-4.16c2.77-3.17,5.23-7.82,7.08-11.76L1504.49,2140.81z"/>
			<path d="M1586.38,2140.61c-1.69,5.96-4.84,14.99-6.73,19.06c-3.27,0.73-13.03,3.06-22.22,3.06c-31.28,0-45.18-20.34-45.18-40.26
				c0-24.92,18.99-41.9,47.35-41.9c10.49,0,19.51,2.41,22.87,2.86c0.56,5.6,1.41,13.96,2.3,19.54l-4.46,0.85
				c-2.5-8.97-5.88-13.62-12.2-16.16c-2.99-1.29-7.56-1.91-11.29-1.91c-18.39,0-27.82,14.68-27.82,34.02
				c0,22.57,11.63,37.57,29.26,37.57c10.93,0,17.45-5.45,23.86-18.34L1586.38,2140.61z"/>
			<path d="M1661.31,2140.81c-0.65,3.22-3.99,16.63-5.13,20.1h-61.4v-4.02c11.1-1,11.86-1.78,11.86-11.86v-46.77
				c0-10.46-1.41-11.14-9.93-11.91v-4.1h38.52c12.24,0,16.64-0.12,18.25-0.24c0.12,2.47,0.68,12.1,1.17,19.22l-4.34,0.6
				c-1.09-4.11-2.85-8.23-4.65-10.53c-2.09-2.97-4.09-3.74-10.64-3.74h-9.14c-4.3,0-4.7,0.29-4.7,4.19v25.8h12.41
				c7.58,0,8.58-1.81,10.27-10.28h4.38v26.26h-4.38c-1.81-8.87-2.78-10.24-10.39-10.24h-12.29v21.96c0,8.39,1.09,10.3,8.08,10.42
				h9.52c6.99,0,8.59-0.93,11.25-4.16c2.77-3.17,5.23-7.82,7.08-11.76L1661.31,2140.81z"/>
			<path d="M1743.45,2161.73c-1.02,0-2.43-0.04-3.93-0.16c-13.08-0.68-17.64-3.61-21.87-9.54c-4.71-6.49-8.52-13.95-12.55-20.83
				c-2.03-3.48-3.68-4.2-8.35-4.2l-3.06-0.08v18.13c0,9.97,1.25,10.73,10.54,11.78v4.1h-35.38v-4.1c9.49-1.01,10.5-1.81,10.5-11.78
				v-47.02c0-9.81-1.25-10.81-10.5-11.66v-4.1h33.61c10.09,0,16.18,1.17,21.01,4.43c4.88,3.22,8.15,8.59,8.15,16.05
				c0,10.64-6.97,16.63-15.29,20.03c1.94,3.67,6.83,11.62,10.46,17.15c4.32,6.57,6.86,9.75,9.32,12.54
				c2.95,3.27,4.79,4.37,8.05,5.41L1743.45,2161.73z M1697.86,2122.24c5.58,0,9.58-0.89,12.37-3.27c4.25-3.43,6.03-8.11,6.03-14.41
				c0-12.87-7.8-17.51-15.47-17.51c-3.35,0-5.09,0.48-5.86,1.21c-0.93,0.77-1.22,2.13-1.22,4.81v29.17H1697.86z"/>
		</g>
	</g>
	<polygon style="fill:none;" points="3015.33,2522 3018.67,2522 3018.67,2522 3015.33,2522 	"/>
</g>
</svg>
